HIERARCHY
ROOT Hips
{
  OFFSET 1.44925e-005 102.336 -0.101585
  CHANNELS 6 Xposition Yposition Zposition Zrotation Xrotation Yrotation
  JOINT LeftUpLeg
  {
    OFFSET 8.9458 -8.66707 0.101652
    CHANNELS 3 Zrotation Xrotation Yrotation
    JOINT LeftLeg
    {
      OFFSET 0 -44.4227 1.3727
      CHANNELS 3 Zrotation Xrotation Yrotation
      JOINT LeftFoot
      {
        OFFSET -0.253549 -42.0924 -1.46059
        CHANNELS 3 Zrotation Xrotation Yrotation
        JOINT LeftToes
        {
          OFFSET -0.04 -4.41509 8.4991
          CHANNELS 3 Zrotation Xrotation Yrotation
          End Site
          {
            OFFSET 0.08 -0.047448 9.77979
          }
        }
      }
    }
  }
  JOINT Spine
  {
    OFFSET 0 11.8905 0
    CHANNELS 3 Zrotation Xrotation Yrotation
    JOINT Spine1
    {
      OFFSET 0 25.6574 0.127663
      CHANNELS 3 Zrotation Xrotation Yrotation
      JOINT RightShoulder
      {
        OFFSET -8.99 -0.362252 -0.22
        CHANNELS 3 Zrotation Xrotation Yrotation
        JOINT RightArm
        {
          OFFSET -10.2827 -0.00338 0.322123
          CHANNELS 3 Zrotation Xrotation Yrotation
          JOINT RightForeArm
          {
            OFFSET -26.364 0.099144 -1.42434
            CHANNELS 3 Zrotation Xrotation Yrotation
            JOINT RightHand
            {
              OFFSET -22.0324 0.085362 1.02216
              CHANNELS 3 Zrotation Xrotation Yrotation
              End Site
              {
                OFFSET -13.3284 -0.6 1.50291
              }
            }
          }
        }
      }
      JOINT LeftShoulder1
      {
        OFFSET 8.99 -0.362252 -0.22
        CHANNELS 3 Zrotation Xrotation Yrotation
        JOINT LeftArm
        {
          OFFSET 10.2827 -0.00337999 0.322123
          CHANNELS 3 Zrotation Xrotation Yrotation
          JOINT LeftForeArm
          {
            OFFSET 26.2597 0.099144 -1.42434
            CHANNELS 3 Zrotation Xrotation Yrotation
            JOINT LeftHand
            {
              OFFSET 22.0902 0.085362 1.02216
              CHANNELS 3 Zrotation Xrotation Yrotation
              End Site
              {
                OFFSET 13.419 -0.6 1.50291
              }
            }
          }
        }
      }
      JOINT Head
      {
        OFFSET 0 8.73416 0.011341
        CHANNELS 3 Zrotation Xrotation Yrotation
        End Site
        {
          OFFSET -0.29 12.7742 2.51395
        }
      }
    }
  }
  JOINT RightUpLeg
  {
    OFFSET -8.9458 -8.66707 0.101652
    CHANNELS 3 Zrotation Xrotation Yrotation
    JOINT RightLeg
    {
      OFFSET 0 -44.4227 1.3727
      CHANNELS 3 Zrotation Xrotation Yrotation
      JOINT RightFoot
      {
        OFFSET 0.253549 -42.0924 -1.46059
        CHANNELS 3 Zrotation Xrotation Yrotation
        JOINT RightToes
        {
          OFFSET 0.04 -4.41509 8.4991
          CHANNELS 3 Zrotation Xrotation Yrotation
          End Site
          {
            OFFSET -0.08 -0.137448 9.77979
          }
        }
      }
    }
  }
}
MOTION
Frames:	17
Frame Time:	0.0333333
216.468 94.9642 7.15922 -3.32377 3.6017 -92.1162 4.85261 20.1652 1.43182 0.973929 27.5557 17.9195 -21.7453 -25.4417 -3.40079 -1.33828e-009 8.75237e-006 -1.47794e-008 8.31136 14.2003 -2.23185 -1.22127 -3.66746 -1.04437 38.4881 1.81328 0.0677509 33.8434 -28.3228 -7.49196 12.2595 46 -3.80941 -9.70796 9.57301 -1.24196 -45.4647 3.60704 -3.40103 -28.5046 -5.69245 1.6824 -0.51336 24.7443 -23.9459 5.82328 9.61819 -0.917488 -5.81903 0.861885 8.20845 2.99088 -29.2988 -3.18152 -1.06772 39.3137 -14.2193 1.51668 -10.6631 -0.151635 0.0462048 0.000530889 0.662642 
213.109 95.1793 6.2778 -3.39305 4.02899 -91.884 5.82552 16.2038 0.619897 1.26442 37.9261 19.5897 -19.2605 -17.6267 -1.68848 -1.33828e-009 8.75237e-006 -1.47794e-008 10.7617 13.9644 -2.27556 -2.77287 -3.7482 -0.388513 38.1733 1.78895 0.0393958 35.8094 -28.668 -4.97704 11.4302 45.3983 -2.35857 -9.87153 9.54571 -0.962144 -45.5581 3.61139 -3.39564 -28.3142 -6.33126 3.11652 -0.800083 24.2358 -23.8509 5.82328 9.61819 -0.917488 -7.92182 2.74309 12.5975 4.20617 -27.5692 -2.48255 -1.12068 40.8025 -14.9592 1.09664 -13.5676 -0.150635 0.0462048 0.000530889 0.662642 
210.208 95.584 5.56037 -3.29955 4.25368 -90.8961 6.39951 9.57516 -0.438244 1.55375 50.1995 21.2533 -13.2801 -8.96574 -0.105022 -1.33828e-009 8.75237e-006 -1.47794e-008 13.6493 13.7684 -2.32776 -4.73002 -3.50843 0.443194 37.5607 1.76063 0.0264059 38.1009 -28.0944 -2.65011 9.72228 42.2262 1.87889 -10.135 9.5308 -0.900615 -45.657 3.63865 -3.43311 -28.1414 -6.33248 3.67269 -0.872997 24.2024 -23.536 5.82328 9.61819 -0.917488 -10.1477 4.66202 17.2112 4.80845 -25.6203 -2.53009 -1.17346 41.0188 -16.0368 1.68011 -15.6494 -0.105932 0.0462048 0.000530889 0.662642 
207.577 96.1962 4.98789 -3.40975 4.2826 -90.1202 6.45325 2.5436 -0.825321 2.06249 61.3083 20.8949 -10.02 -4.651 0.292737 -1.33828e-009 8.75237e-006 -1.47794e-008 16.5392 14.0244 -2.11812 -7.2061 -3.1105 1.6392 36.9796 1.74373 0.0365446 40.0708 -24.9663 -0.0174009 8.07753 36.3544 7.34436 -10.3348 9.52333 -0.905231 -45.5876 3.66797 -3.4992 -28.2142 -6.53154 3.90301 -0.674912 24.6055 -23.5506 5.82328 9.61819 -0.917488 -12.211 6.51696 22.0571 4.93975 -23.2136 -3.20348 -1.17453 40.2274 -16.2052 1.98059 -16.797 -0.0719662 0.0462048 0.000530889 0.662642 
204.915 97.1809 4.41005 -3.74856 3.83087 -89.9763 5.81368 -3.82479 -0.479446 2.79026 69.5689 19.0154 -9.84027 -5.46435 0.2053 -1.33828e-009 8.75237e-006 -1.47794e-008 18.249 14.686 -1.53939 -9.67877 -2.89162 2.98413 36.4572 1.73331 0.0569117 41.2795 -17.5223 2.81645 6.14858 28.0872 13.3415 -10.2992 9.49638 -0.550479 -45.4159 3.6746 -3.53741 -28.3721 -7.20762 4.52909 -0.362338 25.0382 -24.0127 5.82328 9.61819 -0.917488 -14.2042 7.91303 26.8238 4.52915 -19.8281 -4.16763 -1.11513 38.0224 -15.3703 1.91458 -17.6665 -0.0677239 0.0462048 0.000530889 0.662642 
202.204 98.2643 3.82033 -3.97556 3.18766 -89.8152 4.87434 -9.87615 -0.236128 3.56338 74.5357 17.0051 -10.2345 -7.65003 0.0323301 -1.33828e-009 8.75237e-006 -1.47794e-008 19.1273 15.2135 -0.902474 -11.6771 -2.76076 4.14919 35.8141 1.71471 0.0686866 41.6477 -11.0604 5.2385 3.94576 21.9765 19.2696 -10.2654 9.45016 0.0412087 -45.2866 3.66426 -3.53695 -28.3398 -7.93299 5.57721 -0.108367 25.4231 -24.451 5.82328 9.61819 -0.917488 -16.7302 8.79302 32.1263 3.87945 -16.0324 -5.50826 -0.993641 34.8824 -14.2714 1.96854 -18.3879 -0.0548664 0.0462048 0.000530889 0.662642 
199.397 99.1526 3.28825 -4.0079 2.66859 -89.2986 3.79909 -15.5452 -0.557784 3.89429 76.1806 16.2591 -9.2975 -8.54924 -0.0372306 -1.33828e-009 8.75237e-006 -1.47794e-008 19.9324 15.2584 -0.359249 -13.4037 -2.5304 5.07511 35.0773 1.69017 0.0745267 41.9067 -11.1034 7.0193 2.3524 21.0462 24.6863 -10.5 9.41631 0.320832 -45.198 3.65512 -3.53268 -28.1459 -8.0719 6.72292 0.0395986 25.6936 -24.4675 5.82328 9.61819 -0.917488 -18.0297 10.0395 34.954 3.28104 -12.3462 -6.69648 -0.411965 31.641 -13.8955 2.14484 -18.9265 -0.0312308 0.0462048 0.000530889 0.662642 
196.453 99.8597 2.80285 -4.0831 2.06186 -88.7164 2.41725 -20.1843 -1.18729 3.50439 74.7027 16.46 -7.51081 -9.16238 -0.0588742 -1.33828e-009 8.75237e-006 -1.47794e-008 20.3712 15.1002 0.198131 -15.0856 -2.27691 5.8475 34.4213 1.67344 0.0922327 42.2392 -15.0316 8.40344 1.96106 22.318 29.4769 -10.8248 9.40723 0.237728 -45.0707 3.65185 -3.54551 -27.9442 -7.73132 7.95953 0.110216 25.8802 -24.1983 5.82328 9.61819 -0.917488 -18.6651 11.5561 36.9786 2.64378 -8.55802 -6.39787 0.890125 28.4132 -15.1133 2.37996 -19.5367 0.00168553 0.0462048 0.000530889 0.662642 
193.447 100.393 2.31746 -4.23533 1.24942 -88.3729 0.93113 -23.5913 -1.72295 2.70663 70.4038 16.6234 -7.26721 -10.6194 -0.144631 -1.33828e-009 8.75237e-006 -1.47794e-008 20.0629 15.0089 0.812297 -16.5443 -2.08786 6.48937 33.9081 1.67115 0.13328 42.267 -17.5086 9.78292 2.04272 22.346 33.4561 -11.0218 9.39971 0.213053 -44.9563 3.65422 -3.56731 -27.7181 -7.42507 9.36921 0.0624639 25.9994 -23.773 5.82328 9.61819 -0.917488 -19.3466 12.7331 39.3278 1.92497 -4.66615 -6.09864 1.78092 25.2007 -15.7497 2.91503 -20.5343 0.0791122 0.0462048 0.000530889 0.662642 
190.433 100.67 1.84141 -4.20898 0.51688 -88.2565 -0.150549 -25.9289 -1.91916 1.95774 63.24 16.8855 -8.60238 -11.6708 -0.248922 -1.33828e-009 8.75237e-006 -1.47794e-008 19.4429 14.7706 1.44543 -17.7088 -1.84186 7.03042 33.4944 1.68137 0.197529 42.1643 -19.2123 11.3506 1.6499 22.8891 36.7429 -11.2803 9.37055 0.398661 -45.0474 3.67525 -3.59408 -27.2762 -7.49271 10.7144 -0.321139 26.0931 -22.8138 5.82328 9.61819 -0.917488 -19.8554 13.3896 41.3699 1.37273 -1.15112 -6.38716 2.15071 22.3471 -15.2842 3.74664 -21.6555 0.205411 0.0462048 0.000530889 0.662642 
187.403 100.775 1.41024 -3.93912 0.0138035 -88.3348 -0.830606 -26.9537 -2.0085 1.48175 52.9363 17.4158 -8.57004 -11.1549 -0.215814 -1.33828e-009 8.75237e-006 -1.47794e-008 18.8834 14.3232 2.09478 -18.7859 -1.452 7.57373 33.1594 1.70026 0.277491 42.0099 -20.4041 12.8855 0.977271 23.6109 39.3066 -11.8415 9.32924 0.53948 -45.456 3.72974 -3.63673 -26.3571 -8.44037 11.7523 -1.26882 26.8215 -20.9207 5.82328 9.61819 -0.917488 -20.0016 13.7902 42.8813 1.11 1.94273 -6.83676 2.30301 19.695 -14.4111 4.11265 -22.3251 0.272209 0.0462048 0.000530889 0.662642 
184.347 100.82 1.03717 -3.77388 -0.423016 -88.6597 -1.49479 -26.2572 -2.77679 1.19028 40.067 17.5528 -6.80707 -9.97329 -0.0939322 -1.33828e-009 8.75237e-006 -1.47794e-008 18.1866 14.1002 2.71275 -19.8332 -1.00433 8.17707 32.9462 1.72284 0.356105 41.8373 -21.1615 14.1643 0.563999 23.9975 40.7615 -12.3492 9.30774 0.491125 -46.0062 3.80151 -3.68976 -24.9229 -10.7674 12.58 -2.7467 29.0511 -18.1989 5.82328 9.61819 -0.917488 -20.0902 14.1095 44.4018 0.962821 5.14062 -7.0083 2.34429 16.9399 -13.7132 3.79955 -22.7432 0.242528 0.0462048 0.000530889 0.662642 
181.177 100.645 0.758292 -4.0308 -0.756724 -89.1931 -2.02334 -24.2075 -4.39805 1.03271 27.0375 17.2714 -6.33963 -9.39242 -0.0552452 -1.33828e-009 8.75237e-006 -1.47794e-008 17.4272 14.2104 3.20624 -20.7447 -0.48472 8.80337 32.9016 1.74278 0.41168 41.7226 -21.3805 15.175 0.365131 24.1916 40.8189 -12.4584 9.30715 0.440562 -46.3321 3.84383 -3.72 -23.4121 -14.1652 13.4349 -4.42436 32.6558 -15.0963 5.82328 9.61819 -0.917488 -20.2701 14.2956 46.0777 0.848268 8.57582 -7.16853 2.243 14.7657 -12.8684 3.86998 -23.7637 0.283297 0.0462048 0.000530889 0.662642 
177.763 100.095 0.655613 -4.53638 -0.817212 -89.8061 -2.27631 -22.0854 -5.30136 1.13734 17.5327 17.1396 -7.33358 -9.11828 -0.0534295 -1.33828e-009 8.75237e-006 -1.47794e-008 16.9891 14.0896 3.57113 -21.5248 0.258479 9.39038 32.9639 1.75322 0.432146 41.6077 -20.7744 15.8492 0.429453 24.1685 39.5243 -12.4944 9.2941 0.552992 -46.2834 3.83641 -3.71342 -22.3327 -17.694 14.5506 -5.89508 36.5307 -12.1877 5.82328 9.61819 -0.917488 -20.3 14.425 47.6474 0.746753 11.7986 -7.48246 2.12632 13.9759 -11.6212 4.90203 -25.3748 0.495538 0.0462048 0.000530889 0.662642 
174.078 99.3069 0.775838 -4.9153 -0.764506 -90.3323 -2.84403 -21.0107 -4.77694 1.19388 14.2879 17.3317 -6.50657 -7.83994 0.015782 -1.33828e-009 8.75237e-006 -1.47794e-008 16.6387 13.4231 3.85875 -21.9996 1.078 9.81506 33.0217 1.75071 0.41986 41.2764 -19.1827 15.8872 0.9239 23.6943 37.3195 -12.5423 9.27687 0.700789 -46.1904 3.82824 -3.71219 -21.7064 -20.2239 16.1443 -6.90416 39.2964 -10.0614 5.82328 9.61819 -0.917488 -19.9955 14.6082 48.751 0.463606 14.454 -7.96301 1.98485 14.4787 -10.1867 6.01743 -26.9342 0.75107 0.0462048 0.000530889 0.662642 
170.154 98.4256 1.05004 -5.21903 -1.00519 -90.7031 -4.1613 -21.0753 -5.26973 1.067 17.1777 18.2779 -3.23772 -5.27377 0.0792045 -1.33828e-009 8.75237e-006 -1.47794e-008 15.643 12.6857 4.11341 -21.7328 1.50557 9.92133 33.2017 1.74277 0.381601 40.6915 -17.0608 15.0252 1.31008 23.2689 34.7691 -12.1091 9.29148 0.788769 -46.4809 3.87672 -3.75885 -21.1285 -21.3072 17.9907 -7.5914 40.5565 -8.74936 5.82328 9.61819 -0.917488 -19.2173 14.7566 48.4535 -0.147691 16.5084 -8.71577 1.38465 16.3736 -8.71321 7.38279 -28.6295 1.10352 0.0462048 0.000530889 0.662642 
166.099 97.5322 1.34746 -5.80682 -1.67269 -90.8818 -6.00354 -21.4955 -6.64052 1.05313 23.4748 18.3494 0.0143922 -3.70887 0.013012 -1.33828e-009 8.75237e-006 -1.47794e-008 13.8045 12.4996 4.37813 -20.8629 1.43982 9.81634 33.8295 1.74535 0.326445 40.1542 -15.0863 13.3658 1.23248 23.3652 31.6641 -11.5343 9.30525 0.974097 -47.0455 3.96071 -3.82898 -20.3723 -21.7463 19.2687 -8.32895 41.3081 -7.56486 5.82328 9.61819 -0.917488 -18.1245 14.9335 47.2661 -1.10802 17.8565 -9.2228 0.0543487 20.4532 -7.12602 10.9648 -30.1068 1.93821 0.0462048 0.000530889 0.662642 
